<svg xmlns="http://www.w3.org/2000/svg" xmlns:svg="http://www.w3.org/2000/svg" id="SVGRoot" width="48" height="48" version="1.1" viewBox="0 0 48 48"><metadata id="metadata3989"/><g id="layer1" style="display:none"><g id="sf"><path id="path867" d="M 7.6602546,17.413811 20.793169,24.996103 24,24 10.12632,15.990027 Z" style="fill:#006752;fill-opacity:1;stroke:none;stroke-width:1.00157475;stroke-linecap:butt;stroke-linejoin:miter;stroke-miterlimit:4;stroke-dasharray:none;stroke-opacity:1"/><path id="path4084" d="M 44,8.226498 24,19.773503 V 24 L 44,12.452995 Z" style="fill:#0a8;fill-opacity:1;stroke:none;stroke-width:1.00157475;stroke-linecap:round;stroke-linejoin:round;stroke-miterlimit:4;stroke-dasharray:none;stroke-opacity:1;paint-order:markers fill stroke"/><path id="path4090" d="M 4,8.226498 7.6602546,6.113249 24,15.547005 20.339746,17.660254 Z" style="fill:#0fc;fill-opacity:1;stroke:none;stroke-width:1.00157475;stroke-linecap:round;stroke-linejoin:round;stroke-miterlimit:4;stroke-dasharray:none;stroke-opacity:1;paint-order:markers fill stroke"/><path id="path4092" d="M 44,8.226498 40.339745,6.113249 20.339746,17.660254 24,19.773503 Z" style="fill:#0fc;stroke:none;stroke-width:1.00157475;stroke-linecap:round;stroke-linejoin:round;stroke-miterlimit:4;stroke-dasharray:none;stroke-opacity:1;paint-order:markers fill stroke"/><path id="path4106" d="M 20.339315,41.886502 4,32.452995 v -4.226 l 16.339315,9.433507 z" style="fill:#00d4aa;fill-opacity:1;stroke:none;stroke-width:1.00157475;stroke-linecap:round;stroke-linejoin:round;stroke-miterlimit:4;stroke-dasharray:none;stroke-opacity:1;paint-order:markers fill stroke"/><path id="path4116" d="M 24,27.093513 V 44 l 3.659823,-2.113 V 25.074252 Z" style="fill:#0a8;fill-opacity:1;stroke:none;stroke-width:1.00157475;stroke-linecap:round;stroke-linejoin:round;stroke-miterlimit:4;stroke-dasharray:none;stroke-opacity:1;paint-order:markers fill stroke"/><path id="path4122" d="M 20.339315,24.748495 V 41.886502 L 24,44 V 22.634998 Z" style="fill:#00d4aa;fill-opacity:1;stroke:none;stroke-width:1.00157475;stroke-linecap:round;stroke-linejoin:round;stroke-miterlimit:4;stroke-dasharray:none;stroke-opacity:1;paint-order:markers fill stroke"/><path id="path4124" d="m 4,28.226995 3.660685,-2.113498 12.67863,7.320011 v 4.226995 z" style="fill:#008066;fill-opacity:1;stroke:none;stroke-width:1.00157475;stroke-linecap:round;stroke-linejoin:round;stroke-miterlimit:4;stroke-dasharray:none;stroke-opacity:1;paint-order:markers fill stroke"/><path id="path4084-6" d="m 43.999999,19.773503 -16.340176,9.434005 v 4.226497 L 43.999999,24 Z" style="fill:#0a8;fill-opacity:1;stroke:none;stroke-width:1.00157475;stroke-linecap:round;stroke-linejoin:round;stroke-miterlimit:4;stroke-dasharray:none;stroke-opacity:1;paint-order:markers fill stroke"/><path id="path4082-7" d="m 7.6602546,17.413811 v 4.472941 l 12.6794914,7.320508 -4.31e-4,-4.458765 z" style="fill:#00d4aa;fill-opacity:1;stroke:none;stroke-width:1.00157475;stroke-linecap:round;stroke-linejoin:round;stroke-miterlimit:4;stroke-dasharray:none;stroke-opacity:1;paint-order:markers fill stroke"/><path id="path4082" d="m 4,8.226498 v 4.226497 l 16.339746,9.433757 -4.31e-4,-4.226746 v 4.97e-4 z" style="fill:#00d4aa;fill-opacity:1;stroke:none;stroke-width:1.00157475;stroke-linecap:round;stroke-linejoin:round;stroke-miterlimit:4;stroke-dasharray:none;stroke-opacity:1;paint-order:markers fill stroke"/><path id="path4122-3" d="m 4,12.452995 v 7.320508 l 3.6602546,2.113249 v -7.320508 z" style="fill:#00d4aa;fill-opacity:1;stroke:none;stroke-width:1.00157475;stroke-linecap:round;stroke-linejoin:round;stroke-miterlimit:4;stroke-dasharray:none;stroke-opacity:1;paint-order:markers fill stroke"/><path id="path5017" d="M 7.6602546,17.413811 10.12632,15.990027 7.6602546,14.566244 Z" style="fill:#054;fill-opacity:1;stroke:none;stroke-width:1.00157475;stroke-linecap:round;stroke-linejoin:round;stroke-miterlimit:4;stroke-dasharray:none;stroke-opacity:1"/><path id="path5019" d="M 20.339315,29.207011 24,27.093513" style="fill:none;stroke:none;stroke-width:1.00157475;stroke-linecap:round;stroke-linejoin:round;stroke-miterlimit:4;stroke-dasharray:none;stroke-opacity:1"/><path id="path4092-5" d="m 43.999999,19.773503 -3.660255,-2.113249 -19.999999,11.547005 3.660254,2.113249 z" style="fill:#008066;stroke:none;stroke-width:1.00157475;stroke-linecap:round;stroke-linejoin:round;stroke-miterlimit:4;stroke-dasharray:none;stroke-opacity:1;paint-order:markers fill stroke"/><path id="path5054" d="M 20.339315,24.748495 22.817873,23.317499 24,22.634998 v 4.458515 l -3.660685,2.113497 z" style="fill:#008066;fill-opacity:1;stroke:none;stroke-width:1.00157475;stroke-linecap:round;stroke-linejoin:round;stroke-miterlimit:4;stroke-dasharray:none;stroke-opacity:1"/><path id="path5052" d="M 24,24 20.339746,21.886752 20.339315,17.660006 24,19.773503 Z" style="fill:#00d4aa;stroke:none;stroke-width:1.00157475;stroke-linecap:round;stroke-linejoin:round;stroke-miterlimit:4;stroke-dasharray:none;stroke-opacity:1"/><path id="path5056" d="m 24,31.320508 3.659823,-2.113 L 24,27.093513 20.339746,29.20726 Z" style="fill:#008066;fill-opacity:1;stroke:none;stroke-width:1.00157475;stroke-linecap:round;stroke-linejoin:round;stroke-miterlimit:4;stroke-dasharray:none;stroke-opacity:1"/></g></g><g id="layer3" style="display:none"><rect style="fill:#fff;fill-opacity:1;stroke:none;stroke-width:.03779528;stroke-linecap:round;stroke-linejoin:round;stroke-miterlimit:4;stroke-dasharray:none;stroke-opacity:1;paint-order:markers fill stroke" id="rect931" width="48" height="48" x="-.028" y="0"/></g><g id="layer2"><path style="fill:#002b22;stroke:#002b22;stroke-width:.03779528;stroke-linecap:round;stroke-linejoin:round;stroke-opacity:1;fill-opacity:1;stroke-miterlimit:4;stroke-dasharray:none" id="path909" d="M 7.6602546,17.413811 V 14.566244 L 10.12632,15.990027 Z"/><path style="display:inline;fill:#0fc;stroke:#0fc;stroke-width:.03779528;stroke-linecap:round;stroke-linejoin:round;stroke-opacity:1;stroke-miterlimit:4;stroke-dasharray:none" id="path876" d="M 44,8.226498 24,19.773503 4,8.226498 7.6602546,6.113249 24,15.547005 40.339745,6.113249 Z"/><path style="fill:#008066;stroke:#008066;stroke-width:.03779528;stroke-linecap:round;stroke-linejoin:round;stroke-opacity:1;stroke-miterlimit:4;stroke-dasharray:none" id="path913" d="M 44,19.773503 24,31.320508 20.339315,29.207011 40.339744,17.660254 Z"/><path style="fill:#00d4aa;stroke:#00d4aa;stroke-width:.03779528;stroke-linecap:round;stroke-linejoin:round;stroke-opacity:1;fill-opacity:1;stroke-miterlimit:4;stroke-dasharray:none" id="path917" d="M 44,19.773503 V 24 L 27.659823,33.434005 V 41.887 L 24,44 V 31.320508 Z"/><path style="fill:#0a8;stroke:#0a8;stroke-width:.03779528;stroke-linecap:round;stroke-linejoin:round;stroke-opacity:1;stroke-miterlimit:4;stroke-dasharray:none" id="path915" d="M 24,31.320508 V 44 C 24,44 4,32.452995 4,32.452995 v -4.226 l 16.339315,9.433507 v -8.453491 z"/><path style="fill:#008066;stroke:#008066;stroke-width:.03779528;stroke-linecap:round;stroke-linejoin:round;stroke-opacity:1;stroke-miterlimit:4;stroke-dasharray:none" id="path919" d="m 20.339315,33.434005 v 4.226498 L 4,28.226995 7.6602546,26.113746 Z"/><path style="fill:#054;stroke:#054;stroke-width:.03779528;stroke-linecap:round;stroke-linejoin:round;stroke-opacity:1;fill-opacity:1;stroke-miterlimit:4;stroke-dasharray:none" id="path911" d="M 24,27.093513 20.339746,29.20726 20.339315,24.748495 22.817873,23.317499 24,24 Z"/><path style="fill:#004437;stroke:#004437;stroke-width:.03779528;stroke-linecap:round;stroke-linejoin:round;stroke-opacity:1;fill-opacity:1;stroke-miterlimit:4;stroke-dasharray:none" id="path907" d="M 20.339315,24.748495 22.817873,23.317499 10.12632,15.990027 7.6602546,17.413811 Z"/><path style="fill:#0a8;stroke:#0a8;stroke-width:.03779528;stroke-linecap:round;stroke-linejoin:round;stroke-opacity:1;stroke-miterlimit:4;stroke-dasharray:none" id="path905" d="M 24,24 7.6602546,14.566244 v 2.847567 l 12.6790604,7.334684 v 4.458516 L 4,19.773503 V 8.226498 l 20,11.547005 z"/><path style="fill:#00d4aa;stroke:#00d4aa;stroke-width:.03779528;stroke-linecap:round;stroke-linejoin:round;stroke-opacity:1;stroke-miterlimit:4;stroke-dasharray:none" id="path903" d="m 44,8.226498 v 4.226497 L 24,24 v -4.226497 z"/></g></svg>